<?xml version="1.0" encoding="utf-8"?>
<!-- Generator: Adobe Illustrator 28.3.0, SVG Export Plug-In . SVG Version: 6.00 Build 0)  -->
<svg version="1.1" id="Layer_1" xmlns="http://www.w3.org/2000/svg" xmlns:xlink="http://www.w3.org/1999/xlink" x="0px" y="0px"
	 viewBox="0 0 132.9 38" style="enable-background:new 0 0 132.9 38;" xml:space="preserve">
<style type="text/css">
	.st0{fill:#4D4D4F;}
	.st1{fill:#DC2726;}
	.st2{fill:#FFFFFF;}
</style>
<g>
	<path class="st0" d="M46.6,3.5h4.6c2.2,0,3.9,1.7,3.9,3.8s-1.7,3.8-3.9,3.8h-3v4.2h-1.5V3.5z M48.2,4.9v4.7h3c1.4,0,2.4-1,2.4-2.4
		c0-1.4-1-2.4-2.4-2.4H48.2z"/>
	<path class="st0" d="M57.9,7.2v1.1c0,0,0.8-1.3,2.6-1.3h0.3v1.5c0,0-0.3-0.1-0.6-0.1c-1.4,0-2.4,1-2.4,2.5v4.3h-1.4V7.2H57.9z"/>
	<path class="st0" d="M65.5,7.1c2.3,0,4.1,1.9,4.1,4.2c0,2.4-1.9,4.2-4.1,4.2c-2.3,0-4.1-1.9-4.1-4.2C61.3,8.9,63.2,7.1,65.5,7.1z
		 M65.5,14.2c1.5,0,2.7-1.2,2.7-2.9c0-1.7-1.2-2.9-2.7-2.9c-1.5,0-2.7,1.2-2.7,2.9C62.7,13,63.9,14.2,65.5,14.2z"/>
	<path class="st0" d="M71.1,7.2h1.4v1.1c0,0,0.7-1.3,2.3-1.3c1.9,0,2.6,1.4,2.6,1.4s0.8-1.4,2.9-1.4c1.7,0,3,1.4,3,3.5v4.8H82v-4.8
		c0-1.4-0.8-2.1-1.9-2.1c-1.2,0-2.1,0.9-2.1,2.5v4.5h-1.4v-4.8c0-1.3-0.8-2.1-1.9-2.1c-1.1,0-2,0.9-2,2.5v4.5h-1.4V7.2z"/>
	<path class="st0" d="M89.1,7.1c2.3,0,4.1,1.9,4.1,4.2c0,2.4-1.9,4.2-4.1,4.2c-2.3,0-4.1-1.9-4.1-4.2C85,8.9,86.8,7.1,89.1,7.1z
		 M89.1,14.2c1.5,0,2.7-1.2,2.7-2.9c0-1.7-1.2-2.9-2.7-2.9s-2.7,1.2-2.7,2.9C86.4,13,87.6,14.2,89.1,14.2z"/>
	<path class="st0" d="M94,7.2H95c0.4,0,0.7-0.2,0.7-0.8V4.5H97v2.7h1.9v1.4H97v4.3c0,0.8,0.4,1.3,1.1,1.3c0.6,0,1.1-0.3,1.1-0.3v1.4
		c0,0-0.5,0.3-1.2,0.3c-1.6,0-2.5-0.8-2.5-2.5V8.6H94V7.2z"/>
	<path class="st0" d="M101.5,3.7c0.5,0,0.9,0.4,0.9,0.9c0,0.5-0.4,0.9-0.9,0.9c-0.5,0-0.9-0.4-0.9-0.9C100.6,4.1,101,3.7,101.5,3.7z
		 M102.2,7.2v8.1h-1.4V7.2H102.2z"/>
	<path class="st0" d="M108,7.1c2.3,0,4.1,1.9,4.1,4.2c0,2.4-1.9,4.2-4.1,4.2c-2.3,0-4.1-1.9-4.1-4.2C103.9,8.9,105.7,7.1,108,7.1z
		 M108,14.2c1.5,0,2.7-1.2,2.7-2.9c0-1.7-1.2-2.9-2.7-2.9c-1.5,0-2.7,1.2-2.7,2.9C105.3,13,106.5,14.2,108,14.2z"/>
	<path class="st0" d="M115.1,7.2v1.2c0,0,0.8-1.4,2.6-1.4c1.9,0,3.3,1.4,3.3,3.6v4.7h-1.4v-4.7c0-1.4-0.8-2.2-2-2.2
		c-1.4,0-2.4,1-2.4,2.5v4.4h-1.4V7.2H115.1z"/>
	<path class="st0" d="M124.8,10.7l3-0.5c0-1-0.8-1.8-1.9-1.8c-1.4,0-2.2,1.1-2.2,1.1l-0.9-0.9c0,0,1.1-1.5,3.1-1.5
		c1.9,0,3.3,1.4,3.3,3.1v5.2h-1.4v-1.1c0,0-0.8,1.3-2.6,1.3c-1.7,0-2.8-1.1-2.8-2.4C122.4,11.8,123.3,11,124.8,10.7z M123.9,13.1
		c0,0.6,0.5,1.2,1.5,1.2c1.4,0,2.5-1.1,2.5-2.5v-0.3l-2.6,0.4C124.4,11.9,123.9,12.5,123.9,13.1z"/>
	<path class="st0" d="M131.4,3.5h1.4v11.8h-1.4V3.5z"/>
	<path class="st0" d="M46.6,19.5h4.6c2.2,0,3.9,1.7,3.9,3.8s-1.7,3.8-3.9,3.8h-3v4.2h-1.5V19.5z M48.2,20.9v4.7h3
		c1.4,0,2.4-1,2.4-2.4c0-1.4-1-2.4-2.4-2.4H48.2z"/>
	<path class="st0" d="M57.9,23.2v1.1c0,0,0.8-1.3,2.6-1.3h0.3v1.5c0,0-0.3-0.1-0.6-0.1c-1.4,0-2.4,1-2.4,2.5v4.3h-1.4v-8.1H57.9z"/>
	<path class="st0" d="M65.5,23.1c2.3,0,4.1,1.9,4.1,4.2c0,2.4-1.9,4.2-4.1,4.2c-2.3,0-4.1-1.9-4.1-4.2
		C61.3,24.9,63.2,23.1,65.5,23.1z M65.5,30.2c1.5,0,2.7-1.2,2.7-2.9c0-1.7-1.2-2.9-2.7-2.9c-1.5,0-2.7,1.2-2.7,2.9
		C62.7,29,63.9,30.2,65.5,30.2z"/>
	<path class="st0" d="M74.5,23.1c1.9,0,2.8,1.4,2.8,1.4v-4.9h1.4v11.8h-1.4v-1.2c0,0-0.9,1.4-2.8,1.4c-2.1,0-3.9-1.8-3.9-4.2
		C70.6,24.8,72.4,23.1,74.5,23.1z M74.7,30.2c1.4,0,2.6-1.2,2.6-2.9c0-1.7-1.2-2.9-2.6-2.9c-1.4,0-2.6,1.2-2.6,2.9
		C72.1,29,73.3,30.2,74.7,30.2z"/>
	<path class="st0" d="M80.9,28v-4.7h1.4V28c0,1.4,0.8,2.2,2,2.2c1.4,0,2.4-1,2.4-2.5v-4.4h1.4v8.1h-1.4v-1.2c0,0-0.8,1.4-2.6,1.4
		C82.2,31.5,80.9,30.2,80.9,28z"/>
	<path class="st0" d="M89.7,27.3c0-2.4,1.9-4.2,4.1-4.2c2.2,0,3.4,1.6,3.4,1.6l-1,1c0,0-0.8-1.3-2.4-1.3c-1.4,0-2.7,1.3-2.7,2.9
		c0,1.6,1.3,2.9,2.7,2.9c1.5,0,2.5-1.3,2.5-1.3l1,0.9c0,0-1.3,1.7-3.5,1.7C91.6,31.5,89.7,29.7,89.7,27.3z"/>
	<path class="st0" d="M97.8,23.2h0.9c0.4,0,0.7-0.2,0.7-0.8v-1.9h1.4v2.7h1.9v1.4h-1.9v4.3c0,0.8,0.4,1.3,1.1,1.3
		c0.6,0,1.1-0.3,1.1-0.3v1.4c0,0-0.5,0.3-1.2,0.3c-1.6,0-2.5-0.8-2.5-2.5v-4.4h-1.5V23.2z"/>
	<path class="st0" d="M104.7,29.1c0,0,0.8,1.1,2.1,1.1c1.1,0,1.6-0.5,1.6-1.1c0-1.6-4.3-0.9-4.3-3.7c0-1.2,1.1-2.3,2.8-2.3
		c1.9,0,2.8,1.1,2.8,1.1l-1,1c0,0-0.6-0.8-1.8-0.8c-0.9,0-1.4,0.4-1.4,0.9c0,1.5,4.3,0.8,4.3,3.7c0,1.4-1.1,2.5-3,2.5
		c-2,0-3-1.4-3-1.4L104.7,29.1z"/>
	<g>
		<path class="st1" d="M19,0C8.5,0,0,8.5,0,19c0,10.5,8.5,19,19,19c10.5,0,19-8.5,19-19C38,8.5,29.5,0,19,0z"/>
		<path class="st2" d="M7.7,24.8h2.2c0,0,0.1-0.1,0.1-0.1v-9.3h18.1v9.3c0,0,0.1,0.1,0.1,0.1h2.2c0,0,0.1-0.1,0.1-0.1l0,0v-9.1
			c0-1.6-1.2-2.9-2.9-2.9H10.5c-1.6,0-2.9,1.3-2.9,2.9L7.7,24.8C7.6,24.8,7.7,24.8,7.7,24.8z"/>
		<path class="st2" d="M31.1,24.1v0.1h0.1c0,0,0.1,0,0.1-0.1C31.3,24.2,31.3,24.1,31.1,24.1L31.1,24.1z M31.4,24.2
			c0,0.1,0,0.1-0.1,0.1l0.1,0.2h-0.1l-0.1-0.2h-0.1v0.2h-0.1v-0.5h0.2C31.3,24.1,31.4,24.1,31.4,24.2 M30.8,24.3
			c0,0.2,0.2,0.4,0.4,0.4c0.2,0,0.4-0.1,0.4-0.4c0-0.2-0.2-0.4-0.4-0.4C31,23.9,30.8,24.1,30.8,24.3 M31.7,24.3
			c0,0.3-0.2,0.5-0.5,0.5c-0.3,0-0.5-0.2-0.5-0.5c0-0.3,0.2-0.5,0.5-0.5C31.5,23.8,31.7,24,31.7,24.3"/>
	</g>
</g>
</svg>
